<?xml version="1.0" standalone="no"?>
<!DOCTYPE svg PUBLIC "-//W3C//DTD SVG 20010904//EN"
 "http://www.w3.org/TR/2001/REC-SVG-20010904/DTD/svg10.dtd">
<svg version="1.0" xmlns="http://www.w3.org/2000/svg"
 width="324.000000pt" height="324.000000pt" viewBox="0 0 324.000000 324.000000"
 preserveAspectRatio="xMidYMid meet">
<metadata>
Created by potrace 1.14, written by Peter Selinger 2001-2017
</metadata>
<g transform="translate(0.000000,324.000000) scale(0.100000,-0.100000)"
fill="#000000" stroke="none">
<path d="M356 2059 c-93 -22 -200 -95 -258 -176 -190 -264 -63 -625 250 -717
72 -21 209 -15 278 11 163 63 278 208 299 376 l7 57 -115 0 -115 0 -7 -39
c-10 -59 -57 -125 -112 -158 -63 -37 -156 -39 -220 -5 -141 74 -166 267 -48
371 44 38 92 61 130 61 l25 0 0 115 0 115 -37 -1 c-21 -1 -55 -5 -77 -10z"/>
<path d="M1474 1810 c-27 -10 -34 -29 -23 -57 15 -41 79 -27 79 18 0 33 -25
50 -56 39z"/>
<path d="M2820 1800 c-24 -24 -25 -34 -4 -54 32 -32 79 -10 72 35 -5 33 -44
43 -68 19z"/>
<path d="M1080 1591 l0 -179 35 -4 c34 -4 35 -3 36 32 1 19 1 54 0 78 l-2 42
80 0 80 0 -1 -71 c-1 -75 6 -87 45 -84 22 2 22 4 25 183 l2 182 -35 0 c-34 0
-35 -1 -36 -42 -1 -24 0 -57 1 -74 l1 -32 -80 0 -81 -1 3 75 3 74 -38 0 -38 0
0 -179z"/>
<path d="M1720 1590 l0 -181 37 3 37 3 -1 110 0 110 18 -40 c9 -22 29 -69 44
-105 35 -82 40 -88 68 -83 20 4 32 25 70 116 l46 112 1 -111 0 -112 31 -4 c21
-3 32 0 37 11 5 9 8 90 7 181 l0 165 -41 3 -41 3 -53 -123 c-29 -68 -55 -126
-59 -131 -4 -4 -32 50 -62 120 l-55 128 -42 3 -42 3 0 -181z"/>
<path d="M425 1747 c-91 -30 -129 -141 -74 -218 81 -115 259 -54 259 88 0 92
-96 159 -185 130z"/>
<path d="M1455 1692 c-3 -3 -5 -67 -5 -143 0 -135 0 -137 23 -141 50 -10 52
-3 52 145 1 75 -2 137 -5 138 -24 5 -61 5 -65 1z"/>
<path d="M2185 1590 c2 -111 13 -150 49 -169 34 -18 82 -20 111 -5 32 16 49
18 40 4 -4 -6 10 -10 33 -10 l40 0 -2 143 -1 142 -35 0 -35 0 -1 -85 c-2 -111
-2 -106 -20 -124 -20 -20 -78 -21 -94 -1 -7 8 -13 53 -15 107 -1 51 -3 96 -4
99 0 3 -16 5 -35 5 l-33 -1 2 -105z"/>
<path d="M2568 1684 c-80 -43 -56 -131 41 -154 55 -13 75 -29 65 -54 -9 -23
-61 -21 -76 4 -9 14 -24 20 -50 20 l-37 0 11 -31 c21 -61 138 -85 197 -41 30
22 40 76 19 105 -7 10 -43 28 -78 41 -48 18 -65 29 -65 42 0 26 51 31 76 8 23
-21 49 -26 68 -15 11 7 10 14 -3 39 -25 49 -111 67 -168 36z"/>
<path d="M2815 1692 c-3 -3 -5 -67 -5 -143 0 -123 2 -137 18 -141 10 -3 27 -2
37 2 19 7 20 17 20 146 l0 139 -32 1 c-18 1 -35 -1 -38 -4z"/>
<path d="M3017 1685 c-55 -28 -77 -65 -79 -128 -1 -56 27 -114 62 -132 41 -21
99 -26 135 -11 33 14 75 60 75 82 0 15 -68 14 -78 -2 -26 -39 -86 -35 -108 8
-17 32 -12 95 10 116 22 22 61 23 83 3 11 -11 29 -20 39 -21 60 -7 68 8 31 52
-41 48 -115 62 -170 33z"/>
</g>
</svg>
