<svg width="324" height="93" viewBox="0 0 324 93" fill="none" xmlns="http://www.w3.org/2000/svg">
<path d="M138.036 31.0281V67.2212H130.777V51.821H115.273V67.2212H108.013V31.0281H115.273V45.9098H130.777V31.0281H138.036ZM148.863 35.0726C147.584 35.0726 146.512 34.675 145.648 33.88C144.818 33.0503 144.403 32.0306 144.403 30.8207C144.403 29.6108 144.818 28.6083 145.648 27.8132C146.512 26.9836 147.584 26.5688 148.863 26.5688C150.142 26.5688 151.196 26.9836 152.026 27.8132C152.89 28.6083 153.322 29.6108 153.322 30.8207C153.322 32.0306 152.89 33.0503 152.026 33.88C151.196 34.675 150.142 35.0726 148.863 35.0726ZM152.441 38.4949V67.2212H145.181V38.4949H152.441Z" fill="white"/>
<path d="M211.428 31.0281V67.2212H204.169V43.6801L194.472 67.2212H188.976L179.228 43.6801V67.2212H171.968V31.0281H180.213L191.724 57.9396L203.235 31.0281H211.428ZM245.724 38.4949V67.2212H238.413V63.5915C237.48 64.836 236.252 65.8212 234.731 66.5471C233.245 67.2385 231.62 67.5842 229.857 67.5842C227.61 67.5842 225.623 67.1175 223.894 66.1841C222.166 65.2162 220.8 63.8162 219.798 61.9841C218.83 60.1174 218.346 57.905 218.346 55.3469V38.4949H225.605V54.3099C225.605 56.5914 226.176 58.3544 227.316 59.5989C228.457 60.8088 230.013 61.4137 231.983 61.4137C233.988 61.4137 235.561 60.8088 236.702 59.5989C237.843 58.3544 238.413 56.5914 238.413 54.3099V38.4949H245.724ZM263.879 67.6879C261.529 67.6879 259.42 67.273 257.553 66.4434C255.687 65.5792 254.2 64.4212 253.094 62.9693C252.022 61.5174 251.435 59.91 251.331 58.147H258.642C258.781 59.2532 259.316 60.1692 260.25 60.8952C261.218 61.6211 262.41 61.9841 263.828 61.9841C265.21 61.9841 266.282 61.7075 267.042 61.1544C267.838 60.6013 268.235 59.8927 268.235 59.0285C268.235 58.0951 267.751 57.4038 266.783 56.9544C265.85 56.4704 264.346 55.9519 262.272 55.3988C260.129 54.8803 258.366 54.3445 256.983 53.7914C255.635 53.2383 254.46 52.3913 253.457 51.2506C252.489 50.1098 252.005 48.5715 252.005 46.6357C252.005 45.0456 252.455 43.5937 253.353 42.2801C254.287 40.9665 255.6 39.9294 257.294 39.1689C259.023 38.4084 261.045 38.0282 263.361 38.0282C266.783 38.0282 269.514 38.8924 271.554 40.6208C273.593 42.3147 274.717 44.6135 274.924 47.5172H267.976C267.872 46.3764 267.388 45.4777 266.524 44.8209C265.694 44.1295 264.571 43.7838 263.153 43.7838C261.84 43.7838 260.82 44.0258 260.094 44.5098C259.403 44.9937 259.057 45.6678 259.057 46.532C259.057 47.4999 259.541 48.2431 260.509 48.7617C261.477 49.2456 262.981 49.7469 265.02 50.2654C267.094 50.7839 268.805 51.3197 270.154 51.8728C271.502 52.4259 272.66 53.2901 273.628 54.4655C274.63 55.6062 275.149 57.1272 275.183 59.0285C275.183 60.6878 274.717 62.1742 273.783 63.4878C272.884 64.8014 271.571 65.8385 269.842 66.599C268.149 67.3249 266.161 67.6879 263.879 67.6879ZM284.824 35.0726C283.545 35.0726 282.473 34.675 281.609 33.88C280.779 33.0503 280.365 32.0306 280.365 30.8207C280.365 29.6108 280.779 28.6083 281.609 27.8132C282.473 26.9836 283.545 26.5688 284.824 26.5688C286.103 26.5688 287.157 26.9836 287.987 27.8132C288.851 28.6083 289.283 29.6108 289.283 30.8207C289.283 32.0306 288.851 33.0503 287.987 33.88C287.157 34.675 286.103 35.0726 284.824 35.0726ZM288.402 38.4949V67.2212H281.142V38.4949H288.402ZM293.707 52.858C293.707 49.8851 294.312 47.2925 295.522 45.0801C296.732 42.8332 298.409 41.1048 300.552 39.8949C302.695 38.6504 305.149 38.0282 307.915 38.0282C311.475 38.0282 314.414 38.927 316.73 40.7245C319.08 42.4875 320.653 44.9764 321.448 48.1913H313.619C313.204 46.9468 312.495 45.9789 311.493 45.2875C310.525 44.5616 309.315 44.1986 307.863 44.1986C305.789 44.1986 304.147 44.9591 302.937 46.4802C301.727 47.9666 301.122 50.0926 301.122 52.858C301.122 55.5889 301.727 57.7149 302.937 59.2359C304.147 60.7223 305.789 61.4656 307.863 61.4656C310.801 61.4656 312.72 60.152 313.619 57.5248H321.448C320.653 60.6359 319.08 63.1076 316.73 64.9397C314.379 66.7718 311.441 67.6879 307.915 67.6879C305.149 67.6879 302.695 67.0829 300.552 65.873C298.409 64.6286 296.732 62.9001 295.522 60.6878C294.312 58.4408 293.707 55.8309 293.707 52.858Z" fill="#5CE1E6"/>
<path d="M46.8212 0.817627C37.7052 0.817627 28.7939 3.52083 21.2143 8.58539C13.6346 13.65 7.727 20.8484 4.23847 29.2705C0.749932 37.6925 -0.162829 46.9599 1.61561 55.9008C3.39405 64.8416 7.7838 73.0542 14.2298 79.5002C20.6757 85.9462 28.8884 90.3359 37.8292 92.1144C46.77 93.8928 56.0374 92.9801 64.4595 89.4915C72.8816 86.003 80.08 80.0954 85.1446 72.5157C90.2092 64.9361 92.9124 56.0248 92.9124 46.9088L69.8668 46.9088C69.8668 51.4668 68.5152 55.9225 65.9829 59.7123C63.4506 63.5021 59.8514 66.4559 55.6403 68.2002C51.4293 69.9444 46.7956 70.4008 42.3252 69.5116C37.8548 68.6224 33.7485 66.4275 30.5255 63.2045C27.3025 59.9815 25.1076 55.8752 24.2184 51.4048C23.3292 46.9344 23.7856 42.3007 25.5298 38.0896C27.2741 33.8786 30.2279 30.2794 34.0177 27.7471C37.8076 25.2148 42.2632 23.8632 46.8212 23.8632V0.817627Z" fill="white"/>
<path d="M46.8212 0.817627C40.7684 0.817627 34.7749 2.00981 29.1828 4.32611C23.5908 6.64241 18.5097 10.0375 14.2298 14.3174C9.94981 18.5974 6.55476 23.6784 4.23846 29.2705C1.92216 34.8625 0.72998 40.856 0.72998 46.9088L23.7756 46.9088C23.7756 43.8824 24.3717 40.8857 25.5298 38.0897C26.688 35.2936 28.3855 32.7531 30.5255 30.6131C32.6655 28.4731 35.206 26.7756 38.002 25.6175C40.798 24.4593 43.7948 23.8632 46.8212 23.8632V0.817627Z" fill="#5CE1E6"/>
<circle cx="46.821" cy="46.9087" r="14.4035" fill="#5CE1E6"/>
<path d="M61.2245 46.9087C61.2245 45.0173 60.8519 43.1443 60.1281 41.3968C59.4042 39.6493 58.3433 38.0614 57.0058 36.7239C55.6683 35.3864 54.0805 34.3255 52.333 33.6016C50.5854 32.8778 48.7125 32.5052 46.821 32.5052C44.9295 32.5052 43.0565 32.8778 41.309 33.6017C39.5615 34.3255 37.9737 35.3864 36.6362 36.7239C35.2987 38.0614 34.2377 39.6493 33.5139 41.3968C32.79 43.1443 32.4175 45.0173 32.4175 46.9087L46.821 46.9087H61.2245Z" fill="white"/>
</svg>
